<?xml version="1.0" encoding="UTF-8" standalone="no"?>
<!DOCTYPE svg PUBLIC "-//W3C//DTD SVG 1.1//EN" "http://www.w3.org/Graphics/SVG/1.1/DTD/svg11.dtd">
<svg width="100%" height="100%" viewBox="0 0 89 47" version="1.1" xmlns="http://www.w3.org/2000/svg" xmlns:xlink="http://www.w3.org/1999/xlink" xml:space="preserve" xmlns:serif="http://www.serif.com/" style="fill-rule:evenodd;clip-rule:evenodd;stroke-linejoin:round;stroke-miterlimit:2;">
    <g id="Artboard1" transform="matrix(0.907206,0,0,0.843579,-2.30264,-15.3868)">
        <rect x="2.538" y="18.24" width="97.462" height="55.359" style="fill:none;"/>
        <g transform="matrix(1.10229,0,0,1.18542,-5.71495,7.97491)">
            <g>
                <g transform="matrix(1,0,0,1,2.03984,0)">
                    <path d="M53.2,30.3C53.6,29 53.8,27.6 53.8,26.1C53.8,24.9 53.7,23.8 53.4,22.7C51.9,16.7 46.4,12.2 39.9,12.2C34.6,12.2 30,15.2 27.6,19.6C26.7,19.3 25.8,19.2 24.8,19.2C19.7,19.2 15.5,23.3 15.5,28.5C15.5,29.1 15.6,29.8 15.7,30.4C11,31.1 7.4,35.2 7.4,40.1C7.4,45.5 11.8,49.9 17.2,49.9L51.4,49.9C55.2,49.9 58.5,47.7 60.2,44.5C60.9,43.2 61.3,41.6 61.3,40C61.4,35.2 57.8,31.1 53.2,30.3Z" style="fill:rgb(153,153,153);fill-opacity:0.39;fill-rule:nonzero;"/>
                </g>
                <g transform="matrix(1,0,0,1,0.18162,0)">
                    <path d="M84.9,28.9C85.3,27.8 85.5,26.6 85.5,25.4C85.5,24.4 85.4,23.5 85.1,22.6C83.8,17.6 79,13.9 73.3,13.9C68.7,13.9 64.6,16.4 62.6,20C61.8,19.8 61,19.6 60.2,19.6C55.7,19.6 52.1,23 52.1,27.2C52.1,27.7 52.2,28.2 52.3,28.7C48.2,29.3 45.1,32.7 45.1,36.7C45.1,41.2 48.9,44.8 53.7,44.8L83.5,44.8C86.8,44.8 89.7,43 91.2,40.4C91.8,39.3 92.1,38.1 92.1,36.7C92,32.9 88.9,29.6 84.9,28.9Z" style="fill:rgb(187,187,187);fill-opacity:0.39;fill-rule:nonzero;"/>
                </g>
            </g>
        </g>
    </g>
</svg>
